<svg xmlns="http://www.w3.org/2000/svg" xmlns:xlink="http://www.w3.org/1999/xlink" width="500" zoomAndPan="magnify" viewBox="0 0 375 149.999998" height="200" preserveAspectRatio="xMidYMid meet" version="1.0"><defs><g/><clipPath id="id1"><path d="M 54.117188 29 L 96 29 L 96 54.019531 L 54.117188 54.019531 Z M 54.117188 29 " clip-rule="nonzero"/></clipPath></defs><path fill="rgb(3.138733%, 12.939453%, 31.369019%)" d="M 99.609375 12.167969 C 98.933594 11.761719 98.054688 11.976562 97.648438 12.644531 C 97.242188 13.3125 97.457031 14.179688 98.132812 14.585938 L 106.5 19.585938 L 109.21875 20.152344 C 109.734375 20.261719 110.179688 20.558594 110.46875 20.996094 C 110.753906 21.433594 110.855469 21.957031 110.746094 22.46875 C 110.554688 23.367188 109.742188 24.019531 108.8125 24.019531 C 108.675781 24.019531 108.539062 24.003906 108.40625 23.976562 L 103.371094 22.925781 C 102.445312 24.054688 101.726562 25.207031 101.082031 26.578125 C 100.695312 27.402344 100.335938 28.308594 99.980469 29.34375 C 99.304688 32.027344 100.816406 33.304688 102.414062 34.105469 C 102.496094 34.164062 102.578125 34.222656 102.667969 34.277344 L 109.671875 38.296875 L 115.792969 46.96875 C 116.253906 47.625 116.996094 47.976562 117.746094 47.976562 C 118.214844 47.976562 118.691406 47.839844 119.105469 47.550781 C 120.183594 46.808594 120.445312 45.339844 119.695312 44.273438 L 113.269531 35.171875 C 113.074219 34.890625 112.816406 34.65625 112.515625 34.484375 L 107.25 31.464844 C 107.769531 30.367188 108.445312 29.304688 109.160156 28.304688 C 110.144531 26.933594 111.199219 25.683594 112.039062 24.636719 C 113.4375 23.195312 113.71875 20.839844 112.25 19.734375 C 112.085938 19.613281 111.90625 19.5 111.714844 19.402344 Z M 99.609375 12.167969 " fill-opacity="1" fill-rule="nonzero"/><path fill="rgb(3.138733%, 12.939453%, 31.369019%)" d="M 102.125 34.566406 C 101.863281 34.433594 101.476562 34.234375 101.070312 33.941406 L 101.917969 35.4375 L 94.90625 34.5 C 93.605469 34.328125 92.40625 35.230469 92.230469 36.519531 C 92.054688 37.808594 92.96875 38.992188 94.269531 39.167969 L 106.003906 40.734375 C 106.113281 40.75 106.21875 40.757812 106.324219 40.757812 C 107.105469 40.757812 107.84375 40.375 108.292969 39.726562 C 108.574219 39.316406 108.707031 38.839844 108.699219 38.363281 L 102.394531 34.742188 C 102.304688 34.691406 102.21875 34.636719 102.125 34.566406 Z M 102.125 34.566406 " fill-opacity="1" fill-rule="nonzero"/><path fill="rgb(3.138733%, 12.939453%, 31.369019%)" d="M 119.339844 11.867188 C 119.636719 12.003906 119.914062 12.167969 120.175781 12.363281 C 120.441406 12.554688 120.679688 12.769531 120.898438 13.007812 C 121.117188 13.25 121.3125 13.507812 121.480469 13.785156 C 121.648438 14.0625 121.789062 14.351562 121.898438 14.65625 C 122.007812 14.960938 122.085938 15.273438 122.132812 15.59375 C 122.183594 15.910156 122.199219 16.234375 122.183594 16.554688 C 122.167969 16.878906 122.117188 17.195312 122.039062 17.511719 C 121.960938 17.824219 121.851562 18.125 121.710938 18.417969 C 121.570312 18.710938 121.402344 18.988281 121.210938 19.246094 C 121.015625 19.507812 120.796875 19.746094 120.554688 19.960938 C 120.3125 20.179688 120.050781 20.371094 119.773438 20.535156 C 119.492188 20.703125 119.199219 20.839844 118.890625 20.949219 C 118.582031 21.058594 118.265625 21.136719 117.945312 21.183594 C 117.621094 21.230469 117.296875 21.246094 116.96875 21.230469 C 116.644531 21.214844 116.324219 21.167969 116.003906 21.089844 C 115.6875 21.011719 115.382812 20.902344 115.085938 20.765625 C 114.792969 20.625 114.511719 20.460938 114.25 20.269531 C 113.988281 20.074219 113.746094 19.859375 113.527344 19.621094 C 113.308594 19.382812 113.117188 19.121094 112.949219 18.84375 C 112.78125 18.566406 112.640625 18.277344 112.53125 17.972656 C 112.421875 17.667969 112.339844 17.355469 112.292969 17.039062 C 112.246094 16.71875 112.230469 16.398438 112.246094 16.074219 C 112.261719 15.75 112.308594 15.433594 112.390625 15.121094 C 112.46875 14.804688 112.578125 14.503906 112.71875 14.210938 C 112.855469 13.917969 113.023438 13.644531 113.21875 13.382812 C 113.414062 13.125 113.632812 12.886719 113.875 12.667969 C 114.117188 12.453125 114.375 12.261719 114.65625 12.09375 C 114.9375 11.925781 115.230469 11.789062 115.539062 11.679688 C 115.84375 11.570312 116.160156 11.492188 116.484375 11.445312 C 116.808594 11.398438 117.132812 11.382812 117.457031 11.398438 C 117.785156 11.414062 118.105469 11.460938 118.421875 11.539062 C 118.738281 11.621094 119.046875 11.726562 119.339844 11.867188 Z M 119.339844 11.867188 " fill-opacity="1" fill-rule="nonzero"/><path fill="rgb(3.138733%, 12.939453%, 31.369019%)" d="M 108.8125 23.476562 C 109.476562 23.476562 110.066406 23.019531 110.210938 22.355469 C 110.371094 21.59375 109.878906 20.84375 109.105469 20.683594 L 94.167969 17.5625 C 93.394531 17.402344 92.640625 17.890625 92.476562 18.65625 C 92.316406 19.417969 92.808594 20.167969 93.582031 20.328125 L 108.519531 23.445312 C 108.617188 23.464844 108.714844 23.476562 108.8125 23.476562 Z M 108.8125 23.476562 " fill-opacity="1" fill-rule="nonzero"/><g clip-path="url(#id1)"><path fill="rgb(3.138733%, 12.939453%, 31.369019%)" d="M 65.652344 43.191406 C 72.105469 38.136719 82.523438 31.875 95.5 30.730469 L 95.941406 30.691406 L 95.25 29.839844 L 95.121094 29.851562 C 82.035156 31.136719 71.59375 37.554688 65.136719 42.71875 C 58.144531 48.304688 54.191406 53.667969 54.152344 53.722656 L 54.535156 53.996094 C 54.539062 53.996094 54.546875 53.980469 54.566406 53.957031 L 54.632812 54.007812 C 54.671875 53.953125 58.652344 48.671875 65.652344 43.191406 Z M 65.652344 43.191406 " fill-opacity="1" fill-rule="nonzero"/></g><g fill="rgb(3.138733%, 12.939453%, 31.369019%)" fill-opacity="1"><g transform="translate(108.236034, 113.971238)"><g><path d="M 24.769531 -19.617188 C 25.765625 -16.273438 24.316406 -15.367188 20.972656 -15.367188 C 19.074219 -15.367188 15.097656 -15.730469 11.027344 -17.898438 C 9.039062 -18.984375 5.242188 -22.871094 2.710938 -22.058594 C 1.628906 -21.695312 0.902344 -21.0625 0.996094 -17.265625 C 1.085938 -14.554688 2.894531 -8.40625 7.140625 -5.242188 C 10.9375 -2.441406 15.820312 1.175781 26.667969 1.175781 C 35.257812 1.175781 44.023438 -3.976562 44.023438 -15.910156 C 44.023438 -34.984375 19.074219 -27.121094 19.527344 -41.585938 C 19.617188 -46.105469 23.867188 -49.902344 27.933594 -49.902344 C 31.097656 -49.902344 32.453125 -47.277344 30.828125 -41.585938 C 29.652344 -37.605469 29.921875 -35.617188 34.441406 -34.714844 C 36.523438 -34.082031 38.238281 -33.359375 39.503906 -33.71875 C 41.945312 -34.351562 43.121094 -37.335938 43.574219 -38.148438 C 47.277344 -44.75 47.277344 -49.359375 47.730469 -53.246094 C 48.183594 -57.132812 44.929688 -60.027344 41.492188 -61.472656 C 37.0625 -63.371094 32.632812 -65.179688 25.402344 -65.179688 C 14.734375 -65.179688 1.71875 -55.054688 1.71875 -41.402344 C 1.71875 -23.59375 22.871094 -25.945312 24.769531 -19.617188 Z M 24.769531 -19.617188 "/></g></g></g><g fill="rgb(3.138733%, 12.939453%, 31.369019%)" fill-opacity="1"><g transform="translate(154.792003, 113.971238)"><g><path d="M 9.582031 -47.371094 C 12.292969 -47.640625 15.546875 -47.730469 19.074219 -47.730469 C 18.53125 -42.488281 15.730469 -23.324219 15.546875 -8.316406 C 15.546875 -7.140625 15.820312 -6.148438 16.453125 -5.332031 C 18.621094 -2.621094 24.589844 0.179688 30.644531 0.453125 C 32.90625 0.542969 34.171875 -1.808594 34.171875 -5.785156 C 34.261719 -24.769531 35.796875 -30.734375 36.703125 -41.042969 C 36.882812 -42.941406 37.15625 -47.550781 32.09375 -48.273438 L 31.640625 -48.273438 C 42.851562 -48.273438 51.167969 -46.917969 52.523438 -46.828125 C 55.503906 -46.738281 55.957031 -49.269531 55.503906 -50.804688 C 53.878906 -56.679688 50.984375 -62.558594 48.996094 -63.550781 C 47.820312 -64.183594 40.320312 -64.363281 37.335938 -64.546875 C 23.683594 -65.269531 5.875 -64.726562 1.265625 -64.09375 C 0 -63.914062 0 -62.738281 0.0898438 -61.199219 C 0.453125 -56.769531 3.164062 -51.617188 3.886719 -50.804688 C 5.785156 -48.542969 6.238281 -47.640625 9.582031 -47.371094 Z M 9.582031 -47.371094 "/></g></g></g><g fill="rgb(3.138733%, 12.939453%, 31.369019%)" fill-opacity="1"><g transform="translate(205.596765, 113.971238)"><g><path d="M 37.789062 -27.390625 C 38.601562 -27.390625 40.136719 -28.835938 40.410156 -29.652344 C 41.3125 -32.09375 42.667969 -39.144531 40.226562 -39.957031 C 35.980469 -41.3125 29.832031 -40.5 24.5 -39.503906 C 24.859375 -41.765625 25.3125 -43.84375 25.671875 -45.832031 C 25.671875 -46.011719 25.765625 -46.195312 25.765625 -46.375 C 25.765625 -47.640625 24.859375 -48.636719 23.773438 -49.449219 C 23.050781 -49.902344 21.96875 -50.171875 20.519531 -50.082031 C 27.84375 -51.890625 35.164062 -51.4375 45.652344 -51.4375 C 46.464844 -51.4375 48.003906 -52.882812 48.273438 -53.699219 C 49.175781 -56.136719 50.535156 -63.28125 48.453125 -64.726562 C 47.371094 -65.449219 44.476562 -65.992188 41.492188 -65.992188 C 27.84375 -65.992188 12.925781 -64.816406 6.507812 -59.210938 C 5.605469 -58.398438 3.886719 -55.957031 4.519531 -54.511719 C 5.332031 -52.339844 6.507812 -47.910156 7.414062 -46.828125 L 7.683594 -46.554688 C 7.59375 -46.464844 7.59375 -46.375 7.59375 -46.285156 C 5.332031 -37.515625 3.164062 -24.949219 2.710938 -10.757812 C 2.710938 -9.855469 2.894531 -8.226562 3.164062 -7.503906 C 3.164062 -7.050781 4.160156 -4.792969 4.429688 -4.519531 C 8.949219 0.902344 18.171875 1.445312 26.9375 -0.0898438 C 33.265625 -1.175781 39.6875 -0.542969 42.125 -1.898438 C 43.300781 -2.53125 44.386719 -3.433594 45.109375 -6.058594 C 45.742188 -8.859375 47.007812 -10.214844 45.382812 -14.734375 C 45.019531 -16.089844 43.210938 -16.179688 42.21875 -16.179688 C 38.511719 -16.179688 29.109375 -15.730469 22.417969 -13.832031 C 19.796875 -13.558594 20.882812 -14.554688 20.882812 -16.453125 C 21.335938 -19.886719 21.785156 -22.960938 22.238281 -25.765625 C 26.667969 -27.121094 32.273438 -27.390625 37.789062 -27.390625 Z M 37.789062 -27.390625 "/></g></g></g><g fill="rgb(3.138733%, 12.939453%, 31.369019%)" fill-opacity="1"><g transform="translate(253.056735, 113.971238)"><g><path d="M 3.074219 -54.148438 C 3.527344 -53.066406 5.695312 -48.996094 7.140625 -46.828125 C 5.695312 -41.222656 3.253906 -23.234375 3.253906 -8.496094 C 3.253906 -7.324219 3.527344 -6.328125 4.160156 -5.515625 C 6.328125 -2.800781 12.65625 0.179688 18.710938 0.179688 C 20.070312 0.179688 20.703125 -0.453125 20.792969 -1.71875 C 21.152344 -11.480469 21.695312 -18.984375 22.328125 -25.402344 C 22.691406 -24.949219 23.140625 -24.5 23.140625 -24.5 C 25.039062 -22.058594 26.214844 -19.886719 33.449219 -21.695312 C 45.109375 -24.589844 50.625 -36.160156 50.625 -46.554688 C 50.625 -50.894531 47.730469 -57.675781 46.464844 -58.667969 C 44.296875 -60.296875 28.929688 -64.90625 27.390625 -64.90625 C 16.089844 -64.90625 5.695312 -59.300781 3.527344 -57.585938 C 2.621094 -56.863281 2.53125 -55.6875 3.074219 -54.148438 Z M 24.589844 -44.023438 C 25.039062 -47.007812 23.234375 -48.453125 21.875 -48.996094 C 21.695312 -48.996094 21.605469 -49.085938 21.425781 -49.085938 C 23.324219 -49.808594 25.132812 -50.261719 26.847656 -50.261719 C 31.640625 -50.261719 33.992188 -46.828125 33.992188 -43.484375 C 33.992188 -37.335938 28.386719 -33.085938 22.960938 -32.273438 C 23.503906 -36.523438 24.046875 -40.320312 24.589844 -44.023438 Z M 24.589844 -44.023438 "/></g></g></g><g fill="rgb(3.138733%, 12.939453%, 31.369019%)" fill-opacity="1"><g transform="translate(301.511096, 113.971238)"><g><path d="M 24.769531 -19.617188 C 25.765625 -16.273438 24.316406 -15.367188 20.972656 -15.367188 C 19.074219 -15.367188 15.097656 -15.730469 11.027344 -17.898438 C 9.039062 -18.984375 5.242188 -22.871094 2.710938 -22.058594 C 1.628906 -21.695312 0.902344 -21.0625 0.996094 -17.265625 C 1.085938 -14.554688 2.894531 -8.40625 7.140625 -5.242188 C 10.9375 -2.441406 15.820312 1.175781 26.667969 1.175781 C 35.257812 1.175781 44.023438 -3.976562 44.023438 -15.910156 C 44.023438 -34.984375 19.074219 -27.121094 19.527344 -41.585938 C 19.617188 -46.105469 23.867188 -49.902344 27.933594 -49.902344 C 31.097656 -49.902344 32.453125 -47.277344 30.828125 -41.585938 C 29.652344 -37.605469 29.921875 -35.617188 34.441406 -34.714844 C 36.523438 -34.082031 38.238281 -33.359375 39.503906 -33.71875 C 41.945312 -34.351562 43.121094 -37.335938 43.574219 -38.148438 C 47.277344 -44.75 47.277344 -49.359375 47.730469 -53.246094 C 48.183594 -57.132812 44.929688 -60.027344 41.492188 -61.472656 C 37.0625 -63.371094 32.632812 -65.179688 25.402344 -65.179688 C 14.734375 -65.179688 1.71875 -55.054688 1.71875 -41.402344 C 1.71875 -23.59375 22.871094 -25.945312 24.769531 -19.617188 Z M 24.769531 -19.617188 "/></g></g></g><g fill="rgb(100%, 50.19989%, 0%)" fill-opacity="1"><g transform="translate(0.000003125, 97.973421)"><g><path d="M 1.667969 -16.910156 C 1.667969 -16.792969 1.667969 -16.671875 1.726562 -16.554688 L 1.785156 -16.433594 L 0.59375 -12.921875 L 0.59375 -12.089844 C 0.59375 -11.96875 0.65625 -11.851562 0.65625 -11.789062 C 0.65625 -11.671875 0.714844 -11.613281 0.714844 -11.492188 C 0.355469 -10.300781 0.0585938 -9.050781 -0.0585938 -7.921875 C -0.0585938 -7.859375 0 -7.742188 0.0585938 -7.683594 L 0 -7.683594 C 0.117188 -7.382812 0.179688 -7.027344 0.179688 -6.789062 C 0.238281 -6.191406 0.117188 -5.597656 0.0585938 -5.121094 C 0 -4.765625 -0.0585938 -4.464844 -0.0585938 -4.050781 L 0.179688 -3.871094 C 0.65625 -2.023438 2.261719 -0.296875 3.15625 -0.296875 C 3.453125 -0.296875 3.75 -0.535156 3.871094 -1.070312 L 4.765625 -0.773438 L 4.882812 -0.773438 C 5.359375 -0.773438 5.417969 -1.308594 5.539062 -2.085938 C 5.714844 -2.976562 5.894531 -4.289062 6.730469 -5.777344 L 6.730469 -5.714844 C 6.847656 -5.835938 6.847656 -6.015625 6.789062 -6.191406 C 6.789062 -6.492188 6.96875 -6.96875 7.085938 -7.324219 C 7.207031 -7.800781 7.382812 -8.21875 7.324219 -8.632812 C 7.5625 -9.109375 7.800781 -9.707031 8.039062 -10.300781 C 8.992188 -12.503906 10.0625 -15.066406 11.613281 -17.089844 C 11.96875 -18.640625 14.230469 -20.246094 14.828125 -20.246094 C 15.183594 -20.605469 15.484375 -20.84375 15.660156 -20.960938 C 15.660156 -20.902344 15.660156 -20.902344 15.421875 -20.484375 L 15.183594 -20.066406 C 15.246094 -19.414062 14.769531 -18.640625 14.292969 -17.804688 C 13.933594 -17.269531 13.578125 -16.554688 13.457031 -16.375 C 11.96875 -12.863281 10.957031 -9.289062 11.136719 -7.503906 C 11.375 -4.40625 12.683594 -1.132812 16.195312 -1.132812 C 16.554688 -1.132812 16.972656 -1.191406 17.386719 -1.25 L 17.6875 -1.191406 C 17.863281 -1.132812 18.042969 -1.070312 18.222656 -1.070312 C 18.699219 -1.070312 21.019531 -2.796875 21.496094 -3.273438 L 21.4375 -3.273438 C 22.808594 -3.988281 24.710938 -6.132812 25.308594 -7.621094 L 27.511719 -11.074219 C 28.105469 -12.027344 28.40625 -12.804688 28.761719 -13.515625 L 29.894531 -15.960938 C 30.070312 -16.195312 30.132812 -16.496094 30.070312 -16.734375 C 30.070312 -17.03125 29.832031 -17.386719 29.476562 -17.386719 C 28.644531 -17.386719 27.09375 -14.46875 26.023438 -12.265625 C 25.605469 -11.375 25.1875 -10.480469 24.832031 -9.886719 C 22.867188 -6.371094 19.472656 -3.335938 17.507812 -2.976562 C 17.449219 -3.035156 17.449219 -3.15625 17.386719 -3.273438 C 17.449219 -3.988281 17.925781 -5.417969 18.640625 -6.96875 C 18.640625 -7.027344 18.578125 -7.144531 18.578125 -7.265625 L 20.425781 -12.207031 L 20.425781 -12.265625 L 20.664062 -13.21875 L 21.4375 -15.484375 C 21.675781 -16.078125 21.914062 -16.734375 22.09375 -17.507812 C 21.734375 -18.101562 21.496094 -18.519531 21.199219 -18.816406 C 21.320312 -19.351562 21.320312 -19.769531 21.257812 -20.1875 C 21.140625 -22.09375 19.652344 -24.535156 17.984375 -24.535156 C 16.019531 -24.535156 12.265625 -20.605469 10.363281 -18.578125 L 9.824219 -17.984375 L 10.0625 -18.816406 C 10.0625 -19.769531 9.765625 -20.484375 9.527344 -21.019531 C 9.347656 -21.496094 9.171875 -21.972656 9.109375 -22.390625 C 9.109375 -22.570312 9.050781 -22.808594 8.992188 -23.105469 L 8.933594 -23.402344 C 8.039062 -24.472656 5.835938 -25.84375 4.644531 -25.84375 C 4.167969 -25.84375 4.050781 -25.546875 4.050781 -25.070312 C 4.167969 -23.878906 3.632812 -22.269531 2.917969 -20.542969 Z M 1.667969 -16.910156 "/></g></g></g><g fill="rgb(100%, 50.19989%, 0%)" fill-opacity="1"><g transform="translate(24.889919, 97.973421)"><g><path d="M 12.980469 -24.535156 C 12.742188 -24.535156 12.445312 -24.535156 12.148438 -24.414062 C 12.089844 -24.472656 12.027344 -24.472656 11.910156 -24.472656 C 11.671875 -24.472656 11.3125 -24.296875 11.015625 -24.175781 C 10.71875 -24 10.480469 -23.878906 10.300781 -23.878906 L 9.886719 -23.878906 C 9.707031 -23.878906 9.527344 -23.9375 9.347656 -23.9375 C 8.933594 -23.9375 8.394531 -23.820312 7.859375 -23.34375 L 7.5625 -23.105469 L 7.5625 -23.164062 C 7.382812 -23.105469 7.265625 -22.984375 7.085938 -22.808594 C 6.371094 -22.210938 5.65625 -21.4375 5.003906 -20.664062 L 4.226562 -19.828125 C 3.632812 -19.414062 2.738281 -17.863281 2.144531 -16.910156 L 1.90625 -16.554688 L 1.488281 -15.421875 C 0.894531 -14.230469 0.355469 -12.980469 0.0585938 -11.671875 C 0.0585938 -11.550781 0 -11.375 0 -11.253906 C -0.0585938 -11.195312 -0.0585938 -11.074219 -0.0585938 -11.015625 C -0.238281 -9.765625 -0.417969 -8.457031 -0.417969 -7.207031 C -0.355469 -7.144531 -0.417969 -6.3125 -0.417969 -5.417969 C -0.476562 -4.527344 -0.476562 -3.632812 -0.476562 -3.632812 C -0.476562 -3.15625 -0.238281 -2.621094 0.0585938 -2.144531 L 0 -2.144531 C 0.417969 0.476562 1.847656 1.609375 2.917969 2.023438 L 2.976562 2.085938 C 4.347656 2.976562 6.492188 3.273438 8.097656 3.273438 C 9.945312 3.273438 11.074219 2.441406 12.625 1.429688 L 14.46875 0.179688 C 15.542969 -0.535156 16.792969 -1.90625 17.625 -2.917969 L 17.746094 -3.035156 C 18.28125 -3.988281 19.414062 -5.003906 20.128906 -5.953125 L 21.320312 -7.503906 L 21.496094 -8.039062 C 21.554688 -8.15625 21.617188 -8.21875 21.617188 -8.335938 L 21.914062 -8.8125 C 22.628906 -9.707031 23.34375 -10.777344 23.640625 -11.433594 C 24.472656 -12.503906 25.070312 -13.28125 25.011719 -13.933594 C 24.949219 -14.230469 24.949219 -14.351562 24.832031 -14.351562 C 24.832031 -14.351562 24.773438 -14.292969 24.652344 -14.230469 L 24.652344 -14.292969 L 24.355469 -14.171875 C 24.234375 -14.171875 24 -14.113281 23.820312 -13.992188 C 23.285156 -13.816406 22.09375 -11.789062 20.960938 -9.945312 C 20.367188 -8.933594 19.414062 -7.980469 18.996094 -7.382812 C 18.816406 -7.085938 18.519531 -6.667969 18.339844 -6.3125 C 14.945312 -2.023438 10.480469 0.476562 8.753906 0.476562 C 7.742188 0.476562 6.609375 0.0585938 6.550781 -0.59375 C 6.492188 -1.308594 6.371094 -2.441406 6.371094 -3.574219 C 6.371094 -5.003906 6.492188 -6.429688 7.027344 -7.085938 L 8.515625 -7.800781 C 9.171875 -8.097656 11.613281 -10.0625 12.386719 -10.898438 C 13.457031 -11.730469 14.46875 -12.742188 15.246094 -13.816406 L 15.542969 -14.054688 C 16.375 -15.007812 17.625 -17.210938 17.746094 -17.746094 C 18.164062 -18.640625 18.339844 -19.53125 18.339844 -20.367188 C 17.804688 -24.414062 13.636719 -24.535156 12.980469 -24.535156 Z M 12.445312 -17.210938 C 13.339844 -18.402344 14.46875 -19.589844 14.945312 -19.710938 C 15.183594 -19.589844 15.363281 -19.351562 15.542969 -19.234375 C 15.421875 -17.089844 13.578125 -14.351562 11.195312 -12.027344 L 9.886719 -10.957031 C 9.46875 -10.601562 8.992188 -10.183594 8.515625 -9.945312 C 8.871094 -11.136719 10.125 -13.695312 11.730469 -16.136719 C 11.730469 -16.195312 11.851562 -16.316406 11.851562 -16.375 C 11.910156 -16.613281 12.089844 -16.851562 12.148438 -16.972656 Z M 12.445312 -17.210938 "/></g></g></g><g fill="rgb(100%, 50.19989%, 0%)" fill-opacity="1"><g transform="translate(45.730754, 97.973421)"><g><path d="M 5.242188 -4.109375 L 5.179688 -4.167969 C 5.179688 -4.347656 5.359375 -4.941406 5.476562 -5.359375 L 5.476562 -5.300781 L 5.539062 -5.65625 C 5.953125 -6.730469 6.253906 -7.382812 6.667969 -8.277344 L 7.207031 -9.410156 C 7.5625 -10.363281 7.921875 -11.195312 8.515625 -12.148438 C 8.8125 -13.457031 10.125 -14.589844 11.195312 -15.542969 L 12.265625 -16.554688 C 13.578125 -17.984375 16.375 -18.460938 17.6875 -18.460938 C 17.804688 -18.460938 17.984375 -18.460938 18.101562 -18.402344 C 18.640625 -18.519531 18.875 -18.9375 18.816406 -19.53125 C 18.699219 -20.664062 15.660156 -22.808594 14.054688 -23.222656 L 13.753906 -23.222656 C 12.445312 -23.222656 9.707031 -22.390625 8.15625 -21.320312 L 8.21875 -21.320312 L 7.324219 -20.902344 C 5.242188 -19.472656 3.574219 -17.386719 2.085938 -15.421875 L 1.546875 -14.230469 C -0.296875 -11.195312 -1.726562 -7.445312 -1.546875 -4.765625 C -1.132812 -0.417969 2.738281 1.191406 5.65625 1.191406 C 6.191406 1.191406 6.90625 0.65625 7.683594 0.0585938 L 7.921875 -0.117188 C 8.632812 -0.179688 9.410156 -1.25 10.0625 -2.261719 C 10.242188 -2.5625 10.363281 -2.859375 10.660156 -3.15625 L 11.789062 -5.417969 L 11.789062 -5.359375 L 12.625 -6.609375 C 12.625 -6.492188 12.625 -6.667969 12.566406 -6.3125 C 12.566406 -6.253906 12.503906 -6.191406 12.503906 -6.132812 L 12.566406 -5.65625 C 12.625 -5.242188 12.625 -4.941406 12.625 -4.644531 C 12.625 -4.347656 12.625 -3.929688 12.683594 -3.632812 C 12.683594 -3.097656 12.804688 -2.441406 12.980469 -1.964844 C 13.398438 -0.476562 15.363281 1.90625 17.210938 1.90625 C 17.6875 1.90625 18.101562 1.726562 18.578125 1.546875 L 19.054688 1.371094 C 20.1875 1.308594 22.6875 -1.070312 23.164062 -2.144531 C 23.640625 -2.738281 24.59375 -4.347656 25.546875 -5.894531 C 26.441406 -7.324219 27.273438 -8.695312 27.691406 -9.230469 C 28.703125 -11.015625 29.476562 -12.089844 29.953125 -12.742188 C 30.308594 -13.28125 30.488281 -13.578125 30.488281 -13.753906 C 30.546875 -14.054688 30.546875 -14.230469 30.546875 -14.410156 C 30.488281 -14.828125 30.25 -15.007812 29.953125 -15.007812 C 29.714844 -15.007812 29.417969 -14.886719 29.238281 -14.707031 L 27.808594 -12.445312 C 27.511719 -11.851562 26.914062 -11.074219 26.679688 -10.539062 C 26.261719 -9.585938 25.726562 -8.933594 25.425781 -8.457031 L 23.640625 -5.300781 C 22.507812 -3.453125 20.304688 -0.65625 18.875 -0.65625 C 18.578125 -0.65625 17.984375 -0.714844 17.984375 -0.894531 C 17.925781 -1.132812 18.164062 -1.667969 18.519531 -2.382812 L 19.234375 -4.527344 C 19.351562 -5.0625 19.53125 -5.539062 19.710938 -6.015625 C 20.007812 -6.730469 20.246094 -7.445312 20.304688 -8.394531 C 20.304688 -9.707031 20.542969 -10.300781 20.722656 -10.660156 C 20.78125 -10.835938 20.84375 -11.074219 20.84375 -11.253906 C 20.84375 -11.375 21.019531 -11.96875 21.257812 -12.566406 C 21.554688 -13.339844 21.914062 -14.230469 21.855469 -14.410156 C 21.792969 -14.886719 21.496094 -15.066406 21.199219 -15.304688 L 21.257812 -15.304688 L 21.140625 -15.363281 L 21.140625 -15.421875 C 21.140625 -15.484375 21.140625 -15.542969 21.082031 -15.660156 C 20.1875 -16.496094 19.292969 -16.496094 18.164062 -16.496094 C 17.507812 -16.496094 15.363281 -16.375 15.363281 -15.601562 C 15.183594 -15.125 15.007812 -14.769531 14.886719 -14.648438 C 14.707031 -14.410156 14.46875 -14.113281 14.230469 -13.398438 C 14.054688 -12.742188 13.875 -12.089844 13.636719 -11.613281 C 13.042969 -10.71875 12.445312 -9.46875 11.789062 -8.097656 C 10.898438 -6.3125 9.886719 -4.226562 8.933594 -2.917969 C 8.21875 -2.144531 7.5625 -1.429688 6.429688 -1.429688 L 6.253906 -1.429688 C 5.894531 -1.429688 5.65625 -1.726562 5.597656 -2.324219 C 5.597656 -2.5 5.539062 -2.621094 5.476562 -2.738281 C 5.417969 -2.976562 5.359375 -3.273438 5.359375 -3.511719 Z M 5.242188 -4.109375 "/></g></g></g><g fill="rgb(100%, 50.19989%, 0%)" fill-opacity="1"><g transform="translate(71.930664, 97.973421)"><g><path d="M 1.011719 -11.910156 C 1.132812 -10.777344 1.308594 -10.421875 1.609375 -10.421875 C 1.964844 -10.421875 4.464844 -14.171875 4.824219 -15.066406 L 5.714844 -16.910156 L 5.714844 -16.851562 C 6.132812 -17.328125 5.953125 -17.328125 6.132812 -17.925781 C 6.429688 -18.699219 6.789062 -19.234375 7.085938 -19.652344 C 7.144531 -19.710938 7.207031 -19.769531 7.324219 -19.769531 C 7.683594 -19.769531 8.21875 -19.472656 8.574219 -19.351562 C 8.992188 -19.175781 9.410156 -19.054688 9.765625 -19.054688 C 9.824219 -19.054688 9.945312 -19.113281 10.0625 -19.175781 C 10.125 -19.113281 10.125 -19.113281 10.242188 -19.113281 C 10.363281 -19.113281 10.660156 -19.292969 10.898438 -19.414062 C 10.957031 -19.472656 11.015625 -19.472656 11.074219 -19.472656 L 11.074219 -19.414062 C 11.074219 -19.292969 11.074219 -19.175781 11.015625 -19.054688 L 10.957031 -18.578125 C 10.957031 -18.578125 11.015625 -18.519531 11.015625 -18.578125 C 11.136719 -17.507812 10.480469 -16.316406 9.886719 -15.066406 C 9.109375 -13.515625 8.15625 -11.433594 8.15625 -9.46875 C 8.097656 -8.515625 7.859375 -7.445312 7.621094 -6.492188 C 7.382812 -5.417969 7.207031 -4.464844 7.265625 -3.75 C 7.742188 1.546875 10.480469 5.476562 15.421875 5.894531 C 17.625 5.894531 20.007812 5.242188 22.746094 1.609375 C 23.34375 0.355469 23.9375 -0.894531 24.710938 -2.085938 L 25.308594 -2.976562 C 25.726562 -3.511719 26.738281 -5.597656 27.390625 -6.90625 L 27.867188 -7.859375 L 28.226562 -8.871094 C 29.714844 -12.503906 29.535156 -13.160156 29.179688 -13.398438 L 29.238281 -13.398438 L 29.121094 -13.515625 C 29.058594 -13.695312 29.058594 -13.816406 29.058594 -13.933594 C 29.058594 -14.230469 29.058594 -14.410156 29 -14.410156 C 28.464844 -14.410156 27.570312 -11.433594 27.453125 -11.015625 C 27.214844 -10.242188 26.914062 -9.410156 26.5 -8.394531 C 24.472656 -3.035156 19.652344 3.273438 17.386719 3.273438 C 17.269531 3.273438 17.089844 3.273438 16.972656 3.15625 C 16.671875 3.335938 16.433594 3.453125 16.257812 3.453125 C 15.183594 3.453125 14.886719 1.070312 14.648438 -0.714844 L 14.589844 -1.25 C 14.707031 -1.371094 14.648438 -1.429688 14.648438 -1.609375 L 14.53125 -2.796875 L 14.53125 -3.691406 C 14.53125 -4.941406 14.707031 -6.253906 15.066406 -7.5625 L 16.316406 -10.421875 C 17.148438 -12.921875 18.164062 -14.886719 18.996094 -16.375 C 19.828125 -17.925781 20.425781 -19.054688 20.367188 -19.769531 C 20.1875 -21.855469 16.671875 -24.355469 15.839844 -24.355469 C 15.484375 -24.296875 14.171875 -23.761719 12.386719 -22.6875 L 10.003906 -21.257812 L 10.0625 -21.257812 C 9.765625 -21.140625 9.527344 -21.082031 9.289062 -21.082031 C 9.289062 -21.082031 9.289062 -21.140625 9.230469 -21.199219 L 9.230469 -21.140625 L 8.992188 -21.617188 L 8.871094 -21.617188 C 8.457031 -21.617188 8.277344 -22.03125 8.15625 -22.03125 C 8.097656 -22.03125 8.039062 -21.972656 8.039062 -21.972656 C 8.15625 -22.390625 8.335938 -22.570312 8.753906 -23.460938 C 10.003906 -26.082031 11.96875 -30.308594 11.789062 -33.226562 C 11.613281 -35.015625 10.183594 -36.085938 8.515625 -36.085938 C 4.527344 -36.085938 2.144531 -29.953125 2.324219 -25.84375 C 2.324219 -25.546875 2.441406 -25.308594 2.5625 -25.128906 L 2.621094 -24.832031 C 2.621094 -24.472656 3.273438 -23.582031 3.929688 -22.6875 C 4.585938 -21.855469 5.242188 -20.960938 5.242188 -20.722656 C 5.300781 -19.890625 4.167969 -17.625 3.335938 -16.078125 C 2.859375 -15.183594 1.011719 -12.027344 1.011719 -11.910156 Z M -23.222656 5.835938 C -27.511719 5.835938 -31.679688 6.132812 -34.953125 6.492188 C -35.789062 6.667969 -36.621094 6.789062 -37.457031 6.789062 C -37.992188 6.847656 -39.363281 7.085938 -43.589844 8.457031 L -45.910156 9.46875 L -42.875 9.527344 C -42.816406 9.527344 -42.753906 9.585938 -42.695312 9.585938 C -42.578125 9.585938 -42.398438 9.527344 -42.28125 9.46875 C -41.625 9.347656 -40.433594 9.347656 -39.0625 9.289062 C -37.398438 9.289062 -35.492188 9.230469 -34.539062 8.992188 C -33.289062 8.695312 -31.5 8.574219 -29.714844 8.457031 C -28.464844 8.394531 -27.214844 8.277344 -26.203125 8.097656 C -26.140625 8.039062 -26.140625 8.039062 -26.082031 8.039062 C -25.964844 8.039062 -25.902344 8.15625 -25.785156 8.15625 C -25.726562 8.21875 -25.726562 8.15625 -25.664062 8.15625 L -25.011719 8.15625 C -18.757812 8.457031 -13.933594 8.8125 -8.394531 10.363281 C -6.847656 10.898438 -5.179688 11.3125 -3.453125 11.789062 C 1.488281 13.160156 6.550781 14.648438 7.742188 16.613281 C 8.632812 18.164062 9.109375 19.175781 9.707031 19.175781 C 10.421875 19.175781 11.613281 17.925781 14.171875 15.007812 L 15.007812 14.054688 C 13.816406 12.027344 11.433594 9.050781 5.539062 8.515625 C 1.011719 6.730469 -3.335938 5.179688 -10.183594 5.179688 C -12.804688 5.179688 -15.722656 5.417969 -19.234375 5.894531 C -20.542969 5.835938 -21.914062 5.835938 -23.222656 5.835938 Z M 8.933594 -31.261719 C 9.109375 -31.203125 9.230469 -30.964844 9.230469 -30.726562 C 9.347656 -29.359375 8.15625 -26.203125 6.847656 -23.34375 L 6.789062 -23.582031 C 6.550781 -24.117188 6.191406 -25.011719 6.074219 -25.902344 C 6.074219 -27.628906 7.859375 -30.785156 8.933594 -31.261719 Z M 8.933594 -31.261719 "/></g></g></g></svg>